<svg xmlns="http://www.w3.org/2000/svg" width="148.749" height="130.48" viewBox="0 0 148.749 130.48">
  <g id="_4737783_notice_sign_warning_alert" data-name="4737783_notice_sign_warning_alert" transform="translate(-8.017 -9.925)">
    <path id="Path_77" data-name="Path 77" d="M77.119,12.949,8.895,131.1a6.188,6.188,0,0,0,5.272,9.3h136.45a6.188,6.188,0,0,0,5.272-9.3L87.663,12.949A6.108,6.108,0,0,0,77.119,12.949Z" transform="translate(0 0)" fill="#db6500"/>
    <circle id="Ellipse_8" data-name="Ellipse 8" cx="6.202" cy="6.202" r="6.202" transform="translate(76.189 112.495)" fill="#fff"/>
    <g id="Group_82" data-name="Group 82" transform="translate(73.945 53.5)">
      <path id="Path_78" data-name="Path 78" d="M34,73.667,29.349,33.353A8.425,8.425,0,1,1,46.1,31.492v1.861L41.444,73.667a3.993,3.993,0,0,1-4.031,3.411A4.3,4.3,0,0,1,34,73.667Z" transform="translate(-29.276 -23.976)" fill="#fff"/>
    </g>
  </g>
</svg>